<svg xmlns="http://www.w3.org/2000/svg" viewBox="0 0 64 64" fill="none">
  <rect width="64" height="64" rx="14" fill="#0052FF"/>
  <!-- vault door frame -->
  <rect x="16" y="14" width="32" height="36" rx="4" fill="#F3EFE6"/>
  <!-- vertical bars -->
  <rect x="22" y="18" width="3.5" height="28" rx="1" fill="#0052FF" opacity="0.35"/>
  <rect x="30.25" y="18" width="3.5" height="28" rx="1" fill="#0052FF" opacity="0.35"/>
  <rect x="38.5" y="18" width="3.5" height="28" rx="1" fill="#0052FF" opacity="0.35"/>
  <!-- dial -->
  <circle cx="32" cy="32" r="9" fill="#F3EFE6"/>
  <circle cx="32" cy="32" r="9" stroke="#0052FF" stroke-width="2.5"/>
  <!-- keyhole -->
  <circle cx="32" cy="30.5" r="2.4" fill="#0052FF"/>
  <path d="M30.6 32.2h2.8v5.2c0 .7-.6 1.3-1.4 1.3h0c-.8 0-1.4-.6-1.4-1.3V32.2z" fill="#0052FF"/>
  <!-- hinges -->
  <rect x="12" y="22" width="4" height="4" rx="1" fill="#F3EFE6"/>
  <rect x="12" y="38" width="4" height="4" rx="1" fill="#F3EFE6"/>
</svg>
